<?xml version="1.0" standalone="no"?>
<!DOCTYPE svg PUBLIC "-//W3C//DTD SVG 20010904//EN"
 "http://www.w3.org/TR/2001/REC-SVG-20010904/DTD/svg10.dtd">
<svg version="1.0" xmlns="http://www.w3.org/2000/svg"
 width="637.000000pt" height="414.000000pt" viewBox="0 0 637.000000 414.000000"
 preserveAspectRatio="xMidYMid meet">

<g transform="translate(0.000000,414.000000) scale(0.100000,-0.100000)"
fill="#000000" stroke="none">
<path d="M0 2070 l0 -2070 3185 0 3185 0 0 2070 0 2070 -3185 0 -3185 0 0
-2070z m1968 498 l3 -38 138 0 137 0 39 40 c21 22 47 40 57 40 29 0 33 -28 8
-56 l-23 -24 71 0 c103 0 102 2 102 -237 0 -180 -1 -194 -20 -213 -11 -11 -33
-20 -51 -20 -29 0 -30 -1 -15 -22 25 -35 19 -65 -20 -108 -31 -35 -34 -41 -19
-46 10 -4 26 -2 35 4 26 16 49 -14 43 -55 -5 -28 -2 -33 21 -39 35 -8 35 -41
0 -54 -23 -9 -26 -15 -21 -44 7 -43 -6 -56 -50 -49 -29 5 -35 3 -40 -16 -4
-15 -13 -21 -34 -21 -16 0 -28 3 -28 8 5 28 -3 34 -33 29 -42 -6 -72 17 -56
43 6 9 8 25 4 35 -5 15 -15 10 -61 -34 -29 -28 -61 -51 -70 -51 -9 0 -38 21
-65 46 l-50 47 0 -62 0 -61 -241 0 -240 0 3 155 c3 139 5 156 23 174 11 11 72
41 135 67 113 46 160 76 160 100 0 15 -59 108 -101 157 -36 43 -46 110 -18
130 9 7 19 33 23 59 8 56 39 104 86 136 29 19 45 22 100 20 l65 -3 3 -37z
m817 -245 c11 -11 15 -26 11 -44 -3 -16 -1 -31 4 -34 14 -9 12 -49 -2 -63 -7
-7 -34 -12 -60 -12 l-48 0 0 85 0 85 39 0 c24 0 46 -7 56 -17z m163 1 c25 -18
29 -46 7 -64 -20 -16 -19 -26 6 -61 l20 -29 -21 0 c-13 0 -28 13 -43 38 l-22
37 -3 -37 c-3 -30 -7 -38 -23 -38 -17 0 -19 8 -19 85 l0 85 38 0 c21 0 48 -7
60 -16z m102 -69 c0 -78 -2 -85 -20 -85 -18 0 -20 7 -20 78 0 80 3 92 27 92
10 0 13 -21 13 -85z m167 3 c26 -70 28 -84 15 -87 -8 -1 -19 4 -24 13 -12 21
-76 22 -84 1 -4 -8 -14 -15 -24 -15 -16 0 -14 9 14 85 25 70 35 85 52 85 18 0
27 -14 51 -82z m143 20 l40 -61 0 62 c0 54 2 62 18 59 14 -3 17 -16 20 -86 3
-81 3 -82 -22 -82 -19 0 -32 13 -60 57 l-36 57 0 -57 c0 -50 -2 -57 -20 -57
-18 0 -20 7 -20 85 0 79 2 85 20 85 14 0 33 -20 60 -62z m327 38 c24 -21 26
-25 11 -31 -9 -4 -28 1 -42 10 -24 16 -28 16 -51 1 -27 -18 -34 -63 -13 -84
17 -17 65 -15 76 3 5 10 15 13 25 9 25 -9 4 -40 -36 -53 -79 -26 -141 46 -106
123 23 49 92 60 136 22z m194 -5 c46 -46 34 -109 -26 -138 -33 -16 -37 -16
-70 0 -35 17 -55 49 -55 88 0 32 53 79 90 79 22 0 41 -9 61 -29z m160 19 c24
-13 26 -65 2 -78 -15 -9 -14 -12 5 -40 27 -37 27 -42 3 -42 -11 0 -29 16 -42
38 l-24 37 -3 -37 c-3 -30 -7 -38 -23 -38 -17 0 -19 7 -19 78 0 43 3 82 7 85
10 11 72 8 94 -3z m184 -15 c18 -18 25 -35 25 -65 0 -57 -26 -80 -90 -80 l-50
0 0 85 0 85 45 0 c35 0 52 -6 70 -25z m105 -60 c0 -78 -2 -85 -20 -85 -18 0
-20 7 -20 85 0 78 2 85 20 85 18 0 20 -7 20 -85z m141 75 c10 -6 19 -17 19
-25 0 -17 -26 -20 -35 -5 -3 6 -15 10 -26 10 -33 0 -19 -32 19 -44 39 -13 56
-38 47 -67 -14 -42 -86 -47 -121 -8 -15 16 -15 19 -1 25 8 3 26 -1 39 -10 15
-10 28 -12 38 -6 18 11 7 24 -41 48 -22 11 -35 25 -37 41 -6 43 51 66 99 41z
m193 -11 c31 -24 33 -39 6 -39 -11 0 -20 4 -20 9 0 5 -10 11 -22 14 -31 8 -68
-18 -68 -48 0 -47 55 -72 89 -41 11 10 22 12 31 6 12 -7 12 -12 -3 -28 -41
-45 -123 -31 -146 26 -35 83 62 157 133 101z m201 -4 c29 -28 33 -79 9 -113
-54 -78 -175 -23 -157 71 12 63 102 89 148 42z m-2121 -309 c9 -30 16 -60 16
-67 0 -27 18 7 34 64 23 79 43 74 71 -18 l21 -70 18 73 c15 58 22 72 37 72 24
0 24 2 -3 -102 -21 -83 -24 -88 -50 -88 -24 0 -28 6 -44 58 l-17 57 -16 -55
c-15 -50 -19 -55 -46 -55 -31 0 -26 -11 -70 163 -4 17 -1 22 14 22 15 0 23
-13 35 -54z m361 34 c0 -10 -12 -16 -32 -18 -25 -2 -33 -8 -33 -23 0 -15 7
-19 31 -19 24 0 30 -4 27 -17 -2 -11 -14 -19 -31 -21 -19 -2 -27 -9 -27 -23 0
-15 7 -19 35 -19 24 0 35 -5 35 -15 0 -12 -13 -15 -60 -15 l-60 0 0 88 c0 49
3 92 7 96 4 4 30 6 58 4 36 -2 50 -7 50 -18z m145 0 c22 -22 24 -33 10 -60 -7
-13 -6 -19 5 -24 18 -7 20 -57 3 -74 -7 -7 -38 -12 -70 -12 l-58 0 0 88 c0 49
3 92 7 95 15 15 83 7 103 -13z m245 10 c32 -12 59 -72 50 -109 -12 -50 -43
-71 -102 -71 l-53 0 0 95 0 95 39 0 c22 0 51 -4 66 -10z m195 -10 c0 -16 -7
-20 -35 -20 -28 0 -35 -4 -35 -20 0 -16 7 -20 36 -20 28 0 35 -3 32 -17 -2
-12 -14 -19 -36 -21 -24 -2 -32 -8 -32 -23 0 -15 7 -19 35 -19 24 0 35 -5 35
-15 0 -12 -13 -15 -55 -15 l-55 0 0 95 0 95 55 0 c48 0 55 -2 55 -20z m89 -52
l24 -73 25 73 c19 54 30 72 44 72 24 0 23 -4 -13 -104 -27 -74 -34 -86 -54
-86 -13 0 -26 8 -30 18 -4 9 -20 52 -36 95 l-28 77 22 0 c20 0 26 -11 46 -72z
m256 52 c0 -10 -12 -16 -32 -18 -25 -2 -33 -8 -33 -23 0 -15 7 -19 31 -19 24
0 30 -4 27 -17 -2 -11 -14 -19 -31 -21 -19 -2 -27 -9 -27 -23 0 -15 7 -19 35
-19 24 0 35 -5 35 -15 0 -12 -13 -15 -60 -15 l-60 0 0 88 c0 49 3 92 7 96 4 4
30 6 58 4 36 -2 50 -7 50 -18z m83 -63 c3 -74 4 -77 27 -77 16 0 25 -6 25 -15
0 -11 -12 -15 -50 -15 l-50 0 0 88 c0 92 4 105 30 100 12 -3 16 -20 18 -81z
m215 72 c46 -21 64 -89 37 -139 -14 -26 -72 -52 -97 -44 -41 13 -61 28 -72 51
-41 89 43 173 132 132z m207 -9 c41 -41 18 -94 -45 -106 -30 -5 -35 -10 -35
-35 0 -22 -5 -29 -20 -29 -19 0 -20 7 -20 95 l0 95 50 0 c37 0 55 -5 70 -20z
m160 0 c0 -16 -7 -20 -35 -20 -28 0 -35 -4 -35 -20 0 -16 7 -20 36 -20 28 0
35 -3 32 -17 -2 -12 -14 -19 -36 -21 -45 -5 -41 -36 6 -40 20 -2 32 -9 32 -18
0 -10 -14 -14 -55 -14 l-55 0 0 95 0 95 55 0 c48 0 55 -2 55 -20z m152 3 c23
-20 24 -69 1 -82 -15 -8 -15 -13 10 -50 l27 -41 -25 0 c-18 0 -30 10 -47 40
-13 22 -26 40 -30 40 -5 0 -8 -18 -8 -40 0 -33 -3 -40 -20 -40 -19 0 -20 7
-20 95 l0 95 47 0 c29 0 53 -6 65 -17z"/>
<path d="M1809 2577 c-50 -34 -79 -82 -79 -133 0 -33 -5 -46 -20 -54 -40 -21
-15 -130 30 -130 6 0 10 -6 10 -13 0 -7 13 -33 29 -58 34 -55 87 -84 137 -74
l34 6 0 239 0 240 -54 0 c-39 0 -62 -6 -87 -23z"/>
<path d="M2325 2590 c-3 -5 -3 -14 0 -20 3 -6 -1 -7 -9 -4 -16 6 -22 -7 -9
-19 9 -9 54 33 47 44 -7 12 -21 11 -29 -1z"/>
<path d="M2195 2460 c-49 -50 -85 -90 -80 -90 5 0 0 -6 -11 -14 -10 -8 -16
-17 -12 -21 3 -4 53 38 110 93 72 70 100 104 93 111 -8 8 -38 -16 -100 -79z"/>
<path d="M1970 2510 c0 -6 46 -10 119 -10 69 0 122 4 126 10 4 6 -38 10 -119
10 -77 0 -126 -4 -126 -10z"/>
<path d="M2310 2510 c0 -5 22 -10 50 -10 l50 0 0 -204 c0 -204 0 -205 -22
-209 -13 -3 2 -4 32 -3 l55 1 0 215 0 215 -82 3 c-53 2 -83 -1 -83 -8z m137
-227 c-3 -10 -5 -4 -5 12 0 17 2 24 5 18 2 -7 2 -21 0 -30z"/>
<path d="M1970 2300 l0 -190 68 0 c65 0 70 2 103 36 70 73 97 74 164 5 27 -29
47 -41 67 -41 l28 0 0 190 0 190 -53 0 c-52 0 -54 -1 -117 -66 -63 -64 -157
-134 -180 -134 -10 0 32 85 49 100 3 3 26 27 51 53 l44 47 -112 0 -112 0 0
-190z"/>
<path d="M2204 2179 c-8 -13 195 -221 208 -213 26 16 2 54 -86 137 -95 87
-109 96 -122 76z m121 -99 c10 -11 14 -20 8 -20 -5 0 -18 9 -28 20 -10 11 -14
20 -8 20 5 0 18 -9 28 -20z"/>
<path d="M2077 2052 c-100 -101 -107 -110 -107 -147 0 -37 7 -47 84 -124 73
-72 87 -83 100 -71 10 7 16 28 16 51 0 33 3 39 20 39 26 0 36 25 19 46 -10 12
-9 19 9 36 17 18 24 19 36 9 21 -17 46 -7 46 19 0 17 6 20 39 20 22 0 43 5 47
11 4 7 -37 55 -97 115 l-104 104 -108 -108z"/>
<path d="M1820 2104 c0 -29 -51 -64 -160 -108 -161 -66 -160 -64 -160 -237 l0
-139 70 0 c39 0 70 1 70 3 0 26 32 232 36 236 6 6 4 -22 -12 -179 l-7 -60 147
0 146 0 0 244 0 245 -28 -9 c-18 -5 -42 -3 -65 5 -30 10 -37 10 -37 -1z"/>
<path d="M1998 2083 c18 -2 45 -2 60 0 15 2 0 4 -33 4 -33 0 -45 -2 -27 -4z"/>
<path d="M1970 2018 l0 -42 40 39 c22 21 40 40 40 42 0 2 -18 3 -40 3 l-40 0
0 -42z"/>
<path d="M2320 1895 c0 -23 -43 -40 -67 -26 -26 13 -35 4 -22 -22 13 -23 -6
-67 -28 -67 -7 0 -13 -7 -13 -15 0 -8 4 -15 10 -15 5 0 17 -11 26 -25 13 -20
14 -28 4 -40 -17 -21 -4 -38 21 -24 26 13 56 3 64 -22 7 -22 35 -26 35 -4 0
22 47 42 62 27 18 -18 42 6 27 25 -15 17 4 63 26 63 23 0 18 18 -12 44 -24 21
-26 26 -16 49 14 30 3 43 -24 29 -23 -12 -63 2 -63 23 0 8 -7 15 -15 15 -8 0
-15 -7 -15 -15z m67 -77 c30 -28 30 -74 1 -105 -45 -49 -128 -14 -128 54 0 66
77 98 127 51z"/>
<path d="M2290 1810 c-36 -36 -21 -89 30 -105 39 -12 87 36 75 75 -16 51 -69
66 -105 30z"/>
<path d="M1970 1799 c0 -40 5 -49 48 -92 48 -47 80 -58 100 -34 9 10 -7 31
-68 92 l-80 80 0 -46z"/>
<path d="M2730 2290 c0 -15 5 -20 18 -18 9 2 17 10 17 18 0 8 -8 16 -17 18
-13 2 -18 -3 -18 -18z"/>
<path d="M2730 2220 c0 -16 5 -21 23 -18 12 2 22 10 22 18 0 8 -10 16 -22 18
-18 3 -23 -2 -23 -18z"/>
<path d="M2890 2291 c0 -15 6 -21 21 -21 14 0 19 5 17 17 -5 26 -38 29 -38 4z"/>
<path d="M3153 2265 c-11 -34 -10 -35 14 -35 21 0 23 3 17 23 -14 46 -20 48
-31 12z"/>
<path d="M3792 2294 c-24 -17 -30 -62 -10 -82 7 -7 24 -12 38 -12 33 0 50 17
50 51 0 24 -30 59 -50 59 -3 0 -16 -7 -28 -16z"/>
<path d="M3980 2290 c0 -16 5 -21 23 -18 12 2 22 10 22 18 0 8 -10 16 -22 18
-18 3 -23 -2 -23 -18z"/>
<path d="M4150 2255 c0 -46 3 -55 18 -55 27 0 42 20 42 57 0 27 -5 35 -26 43
-14 6 -27 10 -30 10 -2 0 -4 -25 -4 -55z"/>
<path d="M4770 2290 c-11 -11 -20 -29 -20 -39 0 -41 59 -68 88 -39 17 17 15
64 -4 82 -21 21 -40 20 -64 -4z"/>
<path d="M3180 1999 c0 -15 5 -20 22 -17 34 5 37 38 4 38 -20 0 -26 -5 -26
-21z"/>
<path d="M3180 1925 c0 -23 4 -26 28 -23 19 2 27 9 27 23 0 14 -8 21 -27 23
-24 3 -28 0 -28 -23z"/>
<path d="M3430 1960 c0 -64 9 -72 51 -50 14 8 19 21 19 48 0 44 -14 62 -47 62
-21 0 -23 -4 -23 -60z"/>
<path d="M4247 2002 c-23 -25 -21 -58 3 -82 25 -25 52 -26 73 -2 20 22 22 73
5 90 -18 18 -63 14 -81 -6z"/>
<path d="M4460 1995 c0 -23 4 -26 28 -23 19 2 27 9 27 23 0 14 -8 21 -27 23
-24 3 -28 0 -28 -23z"/>
<path d="M4780 2000 c0 -15 7 -20 25 -20 18 0 25 5 25 20 0 15 -7 20 -25 20
-18 0 -25 -5 -25 -20z"/>
</g>
</svg>
